<svg width="52" height="28" viewBox="0 0 52 28" fill="none" xmlns="http://www.w3.org/2000/svg">
<path d="M23.12 11.08L21.72 17.6H27.28L26.44 21.36H20.92L19.48 28H14.96V27.52L16.28 21.36H10.56L9.12 28H4.6V27.52L5.92 21.36H0.0800003L0.92 17.6H6.72L8.12 11.08H2.4L3.28 7.24H8.96L10.52 -1.90735e-06H15.04V0.479999L13.6 7.24H19.36L20.92 -1.90735e-06H25.4V0.479999L23.96 7.24H29.64L28.76 11.08H23.12ZM18.52 11.08H12.76L11.36 17.6H17.12L18.52 11.08ZM51.9085 23.16V28H35.1885V23.16H41.1885V6.6H41.0285L35.1485 11.96V5.36L41.0685 -1.90735e-06H46.5085V23.16H51.9085Z" fill="white"/>
</svg>
